<svg width="201" height="47" viewBox="0 0 201 47" fill="none" xmlns="http://www.w3.org/2000/svg">
<path d="M6.14258 18V15.4121H9.3457V7.62891H6.14258V5.04102H11.0742L13.6719 7.62891V15.4121L11.0742 18H6.14258ZM1.14258 5.04102H5.45898V18H1.14258V5.04102ZM22.3633 18V10.2168H16.2207V8.92773L17.5195 7.62891H23.9941L26.582 10.2168V18H22.3633ZM21.6797 11.9648V13.7617H19.4531V15.5781H21.6797V16.7207L20.3906 18H17.0898L15.3516 16.291V13.6934L17.0898 11.9648H21.6797ZM27.3828 7.62891H31.6699L35.3613 18H31.2598L27.3828 7.62891ZM35.8008 17.4238L33.8672 11.9355L35.2637 7.62891H39.2969L35.8008 17.4238ZM40.1855 7.62891H44.5117V18H40.1855V7.62891ZM40.1855 3.58594H44.5117V6.33984H40.1855V3.58594ZM57.8711 3.67383V18H53.5547V3.67383H57.8711ZM50.791 15.5781H52.8711V16.9746L51.8457 18H48.8086L46.4746 15.666V9.96289L48.8086 7.62891H52.8711V10.2168H50.791V15.5781ZM73.3789 5.04102H77.7344V18H73.4082V12.7363H70.2051V10.1387H73.3789V5.04102ZM69.5215 18H65.2051V5.04102H69.5215V18ZM84.1113 18H82.3828L79.7949 15.4121V10.2168L82.3828 7.62891H84.1113V18ZM84.7949 13.8398V12.0332H87.0703V10.2168H84.7949V7.62891H88.457L91.0449 10.2168V13.8398H84.7949ZM84.7949 18V15.5781H90.5957V16.7012L89.3066 18H84.7949ZM97.207 3.67383V18H92.8906V3.67383H97.207ZM99.8242 10.2168H97.8906V8.9082L99.1602 7.62891H101.523L104.121 10.2168V15.4121L101.523 18H97.8906V15.5781H99.8242V10.2168ZM110.205 18H108.477L105.889 15.4121V10.2168L108.477 7.62891H110.205V18ZM110.889 13.8398V12.0332H113.164V10.2168H110.889V7.62891H114.551L117.139 10.2168V13.8398H110.889ZM110.889 18V15.5781H116.689V16.7012L115.4 18H110.889ZM125.83 10.2168H123.994V9.08398L125.439 7.62891H128.057L130.156 10.0508V12.7363H125.83V10.2168ZM118.984 18V7.62891H123.301V18H118.984ZM135.918 15.4121H138.77V18H134.199L131.602 15.4121V10.2168H130.742V7.62891H131.602V6.50586L135.918 5.04102V15.4121ZM136.602 10.2168V7.62891H138.926V10.2168H136.602ZM8.63281 43H4.43359L-0.253906 30.041H4.15039L8.63281 43ZM9.30664 30.041H13.6426L9.16016 42.6094L7.2168 36.9062L9.30664 30.041ZM17.373 43H15.6445L13.0566 40.4121V35.2168L15.6445 32.6289H17.373V43ZM18.0566 38.8398V37.0332H20.332V35.2168H18.0566V32.6289H21.7188L24.3066 35.2168V38.8398H18.0566ZM18.0566 43V40.5781H23.8574V41.7012L22.5684 43H18.0566ZM32.4023 43H28.5742L26.1523 40.5781V28.6738H30.4688V40.4121H32.4023V43ZM40.3516 43V35.2168H34.209V33.9277L35.5078 32.6289H41.9824L44.5703 35.2168V43H40.3516ZM39.668 36.9648V38.7617H37.4414V40.5781H39.668V41.7207L38.3789 43H35.0781L33.3398 41.291V38.6934L35.0781 36.9648H39.668ZM53.3691 35.2168H51.5332V34.084L52.9785 32.6289H55.5957L57.6953 35.0508V37.7363H53.3691V35.2168ZM46.5234 43V32.6289H50.8398V43H46.5234ZM70.332 28.6738V43H66.0156V28.6738H70.332ZM63.252 40.5781H65.332V41.9746L64.3066 43H61.2695L58.9355 40.666V34.9629L61.2695 32.6289H65.332V35.2168H63.252V40.5781ZM76.5918 43H74.8633L72.2754 40.4121V35.2168L74.8633 32.6289H76.5918V43ZM77.2754 38.8398V37.0332H79.5508V35.2168H77.2754V32.6289H80.9375L83.5254 35.2168V38.8398H77.2754ZM77.2754 43V40.5781H83.0762V41.7012L81.7871 43H77.2754ZM99.1797 41.584H94.9414L95.8398 39.0156H98.1836L94.7168 30.041H98.9258L104.092 43H99.7266L99.1797 41.584ZM93.7891 43H89.6191L94.248 30.627L96.1621 35.7734L93.7891 43ZM111.445 43H107.617L105.195 40.5781V28.6738H109.512V40.4121H111.445V43ZM111.406 32.6289H115.693L119.385 43H115.283L111.406 32.6289ZM119.824 42.4238L117.891 36.9355L119.287 32.6289H123.32L119.824 42.4238ZM131.035 43V35.2168H124.893V33.9277L126.191 32.6289H132.666L135.254 35.2168V43H131.035ZM130.352 36.9648V38.7617H128.125V40.5781H130.352V41.7207L129.062 43H125.762L124.023 41.291V38.6934L125.762 36.9648H130.352ZM144.053 35.2168H142.217V34.084L143.662 32.6289H146.279L148.379 35.0508V37.7363H144.053V35.2168ZM137.207 43V32.6289H141.523V43H137.207ZM156.543 43V35.2168H150.4V33.9277L151.699 32.6289H158.174L160.762 35.2168V43H156.543ZM155.859 36.9648V38.7617H153.633V40.5781H155.859V41.7207L154.57 43H151.27L149.531 41.291V38.6934L151.27 36.9648H155.859ZM174.023 28.6738V43H169.707V28.6738H174.023ZM166.943 40.5781H169.023V41.9746L167.998 43H164.961L162.627 40.666V34.9629L164.961 32.6289H169.023V35.2168H166.943V40.5781ZM187.617 40.4121L185.029 43H182.139V40.5781H183.213V35.2168H182.139V32.6289H185.029L187.617 35.2168V40.4121ZM180.332 40.5781H181.455V43H178.555L175.967 40.4121V35.2168L178.555 32.6289H181.455V35.2168H180.332V40.5781Z" fill="#14FC2B"/>
</svg>
